<?xml version="1.0" standalone="no"?>
<svg xmlns="http://www.w3.org/2000/svg" viewBox="0 0 256.91200000000003 52" width="256.91200000000003" height="52"><rect fill="none" stroke="#ff8686" stroke-width="3" width="253.91200000000003" height="49" x="1.5" y="1.5"></rect><g fill="#fe0b01" color="#fe0b01" transform="translate(12, 12) scale(0.5384616)"><svg width="52.0" height="52.0" x="0.0" y="0.0" viewBox="0 0 52 52"><path fill="currentColor" fill-rule="evenodd" d="M18.22 33.35s9.278 9.366 25.673 11.515a26.024 26.024 0 0 1-4.652 3.512l-.054.034a25.875 25.875 0 0 1-13.82 3.58 26.054 26.054 0 0 1-4.701-.545c-.167-.035-.333-.078-.5-.116-2.487-6.099-2.5-12.173-2.247-15.465.12-1.574.301-2.515.301-2.515zM15.745 22.9S12.273 35.616 18.61 50.89a26.12 26.12 0 0 1-5.368-2.273l-.055-.03A25.865 25.865 0 0 1 3.175 38.408a26.147 26.147 0 0 1-1.878-4.343c-.054-.163-.099-.328-.15-.492 4.038-5.202 9.293-8.25 12.27-9.678 1.423-.683 2.328-.997 2.328-.997zm35.536-2.96c.445 1.86.695 3.795.716 5.786l.002.064a25.868 25.868 0 0 1-3.81 13.76 26.134 26.134 0 0 1-2.821 3.797c-.115.127-.235.249-.352.374-6.524-.895-11.79-3.921-14.516-5.786-1.302-.892-2.026-1.517-2.026-1.517S41.223 33.065 51.28 19.94zM6.983 8.25c6.525.895 11.792 3.922 14.517 5.786 1.302.89 2.026 1.517 2.026 1.517S10.778 18.904.718 32.028a26.047 26.047 0 0 1-.715-5.784L0 26.181A25.871 25.871 0 0 1 3.81 12.42a26.18 26.18 0 0 1 2.822-3.797c.114-.128.235-.25.351-.375zM33.39 1.07a26.021 26.021 0 0 1 5.368 2.272l.055.03a25.864 25.864 0 0 1 10.012 10.18 25.98 25.98 0 0 1 1.878 4.342c.053.163.098.327.149.492-4.038 5.203-9.292 8.25-12.27 9.678-1.422.682-2.327.997-2.327.997s3.471-12.719-2.865-27.991zM26.134 0l.503.007c1.582.04 3.157.221 4.7.545.167.036.333.079.5.117 2.487 6.098 2.499 12.172 2.247 15.465-.12 1.573-.301 2.515-.301 2.515S24.506 9.283 8.11 7.135a26.1 26.1 0 0 1 4.651-3.513c.019-.01.036-.023.055-.033A25.877 25.877 0 0 1 26.637.009z"></path></svg></g><path fill="#fe0b01" fill-rule="nonzero" d="M12.84 13.90L12.84 13.90Q12.84 16.32 11.06 17.70Q9.29 19.08 6.53 19.08L6.53 19.08Q4.34 19.08 2.30 17.88L2.30 17.88Q1.30 17.26 0.65 16.12Q0 14.98 0 13.51L0 13.51L3.02 13.37Q3.02 14.66 4.13 15.38Q5.23 16.10 6.58 16.10L6.58 16.10Q9.58 16.10 9.58 13.99L9.58 13.99Q9.58 12.26 7.54 11.95L7.54 11.95L4.75 11.66Q2.66 11.35 1.44 10.18Q0.22 9 0.22 6.79Q0.22 4.58 1.97 3.14Q3.72 1.70 6.40 1.70Q9.07 1.70 10.70 3.06Q12.34 4.42 12.34 6.55L12.34 6.55L9.36 6.70Q8.95 4.61 6.55 4.61L6.55 4.61Q5.09 4.61 4.26 5.23Q3.43 5.86 3.43 6.71Q3.43 7.56 4.03 8.05Q4.63 8.54 5.52 8.66L5.52 8.66L8.26 8.95Q12.84 9.58 12.84 13.90ZM21.12 16.30L21.12 18.94L19.18 18.94Q17.40 18.94 16.48 17.88Q15.55 16.82 15.55 15.36L15.55 15.36L15.55 8.16L14.23 8.16L14.23 5.78L15.55 5.78L15.55 3.10L18.67 3.10L18.67 5.78L20.88 5.78L20.88 8.16L18.67 8.16L18.67 15.17Q18.67 16.30 19.75 16.30L19.75 16.30L21.12 16.30ZM31.13 12.74L31.13 12.74L31.13 11.50Q31.13 9.72 30.61 8.78Q30.10 7.85 28.46 7.85L28.46 7.85Q25.82 7.85 25.82 11.40L25.82 11.40L25.82 12.65Q25.82 16.46 28.46 16.46L28.46 16.46Q30.17 16.46 30.70 15.19L30.70 15.19Q31.13 14.18 31.13 12.74ZM34.25 12.02L34.25 12.02Q34.25 16.46 32.57 17.98L32.57 17.98Q31.15 19.27 28.46 19.27L28.46 19.27Q25.03 19.27 23.83 17.26L23.83 17.26Q22.70 15.41 22.70 12.02L22.70 12.02Q22.70 8.86 23.83 7.06L23.83 7.06Q25.08 5.04 28.38 5.04Q31.68 5.04 32.96 6.80Q34.25 8.57 34.25 12.02ZM47.38 9.74L47.38 18.94L44.26 18.94L44.26 10.18Q44.26 9 43.78 8.57Q43.30 8.14 42.43 8.14L42.43 8.14L39.62 9.31L39.62 18.94L36.50 18.94L36.50 5.23L38.83 5.23L39.55 6.86L43.39 5.09Q45.00 5.09 46.19 6.28Q47.38 7.46 47.38 9.74L47.38 9.74ZM60.77 12.82L60.77 12.82L52.78 12.82Q52.78 14.69 53.36 15.55Q53.95 16.42 55.73 16.42L55.73 16.42Q56.88 16.42 57.43 15.68Q57.98 14.95 57.98 14.28L57.98 14.28L60.79 14.28Q60.79 16.85 59.41 18.05Q58.03 19.25 55.76 19.25Q53.50 19.25 52.25 18.60L52.25 18.60Q49.68 17.28 49.68 11.59L49.68 11.59Q49.68 8.21 51.14 6.64Q52.61 5.06 55.61 5.06L55.61 5.06Q60.82 5.06 60.82 10.85L60.82 10.85Q60.82 11.47 60.77 12.82ZM52.85 10.68L52.85 10.68L57.98 10.68Q57.98 9.10 57.38 8.38Q56.78 7.66 55.55 7.66Q54.31 7.66 53.58 8.39Q52.85 9.12 52.85 10.68ZM62.83 10.90L62.83 10.90L62.83 8.78Q62.83 5.45 64.58 3.58Q66.34 1.70 69.43 1.70Q72.53 1.70 74.40 3.58L74.40 3.58Q75.72 4.90 75.72 7.54L75.72 7.54L72.60 7.54Q72.60 4.68 69.55 4.68L69.55 4.68Q68.64 4.68 68.00 5.03Q67.37 5.38 67.06 5.83Q66.74 6.29 66.58 7.18Q66.41 8.06 66.38 8.66Q66.36 9.26 66.36 10.27Q66.36 11.28 66.37 11.63Q66.38 11.98 66.44 12.76Q66.50 13.54 66.64 13.87Q66.77 14.21 67.02 14.74Q67.27 15.26 67.66 15.48L67.66 15.48Q68.64 16.10 69.89 16.10L69.89 16.10Q71.98 16.10 72.84 14.33L72.84 14.33L72.84 13.18L70.78 13.18L70.78 10.39L75.70 10.39L75.70 15.55Q74.95 17.30 73.34 18.19Q71.74 19.08 69.70 19.08L69.70 19.08Q66.07 19.08 64.45 17.05Q62.83 15.02 62.83 10.90ZM88.37 5.14L88.37 18.94L86.28 18.94L85.32 17.28L81.98 19.08Q79.20 19.08 78.24 17.06L78.24 17.06Q77.76 16.08 77.58 14.94Q77.40 13.80 77.40 12.56Q77.40 11.33 77.42 10.74Q77.45 10.15 77.54 9.37Q77.64 8.59 77.82 8.06Q78.00 7.54 78.34 6.97Q78.67 6.41 79.15 6.07L79.15 6.07Q80.23 5.33 81.96 5.33L81.96 5.33L85.25 5.33L88.37 5.14ZM82.87 15.79L85.25 14.57L85.25 8.14L82.87 8.14Q81.55 8.14 81.04 9.14Q80.52 10.15 80.52 12.16Q80.52 14.16 81.01 14.98Q81.50 15.79 82.87 15.79L82.87 15.79ZM109.42 9.74L109.42 18.94L106.30 18.94L106.30 10.42Q106.30 9.14 106.00 8.64Q105.70 8.14 104.95 8.14L104.95 8.14L102.14 9.31L102.14 18.94L99.02 18.94L99.02 10.42Q99.02 8.14 97.44 8.14L97.44 8.14L94.87 9.31L94.87 18.94L91.75 18.94L91.75 5.23L94.08 5.23L94.80 6.86L98.40 5.09Q100.27 5.09 101.23 6.91L101.23 6.91L105.70 5.09Q107.57 5.09 108.49 6.35Q109.42 7.61 109.42 9.74L109.42 9.74ZM123.05 12.82L123.05 12.82L115.06 12.82Q115.06 14.69 115.64 15.55Q116.23 16.42 118.01 16.42L118.01 16.42Q119.16 16.42 119.71 15.68Q120.26 14.95 120.26 14.28L120.26 14.28L123.07 14.28Q123.07 16.85 121.69 18.05Q120.31 19.25 118.04 19.25Q115.78 19.25 114.53 18.60L114.53 18.60Q111.96 17.28 111.96 11.59L111.96 11.59Q111.96 8.21 113.42 6.64Q114.89 5.06 117.89 5.06L117.89 5.06Q123.10 5.06 123.10 10.85L123.10 10.85Q123.10 11.47 123.05 12.82ZM115.13 10.68L115.13 10.68L120.26 10.68Q120.26 9.10 119.66 8.38Q119.06 7.66 117.83 7.66Q116.59 7.66 115.86 8.39Q115.13 9.12 115.13 10.68ZM137.69 13.90L137.69 13.90Q137.69 16.32 135.91 17.70Q134.14 19.08 131.38 19.08L131.38 19.08Q129.19 19.08 127.15 17.88L127.15 17.88Q126.14 17.26 125.50 16.12Q124.85 14.98 124.85 13.51L124.85 13.51L127.87 13.37Q127.87 14.66 128.98 15.38Q130.08 16.10 131.42 16.10L131.42 16.10Q134.42 16.10 134.42 13.99L134.42 13.99Q134.42 12.26 132.38 11.95L132.38 11.95L129.60 11.66Q127.51 11.35 126.29 10.18Q125.06 9 125.06 6.79Q125.06 4.58 126.82 3.14Q128.57 1.70 131.24 1.70Q133.92 1.70 135.55 3.06Q137.18 4.42 137.18 6.55L137.18 6.55L134.21 6.70Q133.80 4.61 131.40 4.61L131.40 4.61Q129.94 4.61 129.11 5.23Q128.28 5.86 128.28 6.71Q128.28 7.56 128.88 8.05Q129.48 8.54 130.37 8.66L130.37 8.66L133.10 8.95Q137.69 9.58 137.69 13.90ZM145.97 16.30L145.97 18.94L144.02 18.94Q142.25 18.94 141.32 17.88Q140.40 16.82 140.40 15.36L140.40 15.36L140.40 8.16L139.08 8.16L139.08 5.78L140.40 5.78L140.40 3.10L143.52 3.10L143.52 5.78L145.73 5.78L145.73 8.16L143.52 8.16L143.52 15.17Q143.52 16.30 144.60 16.30L144.60 16.30L145.97 16.30ZM158.81 5.23L158.81 18.94L156.48 18.94L155.76 17.30L151.92 19.08Q150.31 19.08 149.12 17.89Q147.94 16.70 147.94 14.42L147.94 14.42L147.94 5.23L151.06 5.23L151.06 13.75Q151.06 16.03 152.88 16.03L152.88 16.03L155.69 14.52L155.69 5.23L158.81 5.23ZM172.27 0.89L172.27 18.94L170.18 18.94L169.22 17.28L165.89 19.08Q163.10 19.08 162.14 17.06L162.14 17.06Q161.66 16.08 161.48 14.94Q161.30 13.80 161.30 12.56Q161.30 11.33 161.33 10.74Q161.35 10.15 161.45 9.37Q161.54 8.59 161.72 8.06Q161.90 7.54 162.24 6.97Q162.58 6.41 163.06 6.07L163.06 6.07Q164.14 5.33 165.86 5.33L165.86 5.33L169.15 5.33L169.15 0.89L172.27 0.89ZM166.78 15.79L169.15 14.57L169.15 8.14L166.78 8.14Q165.46 8.14 164.94 9.14Q164.42 10.15 164.42 12.16Q164.42 14.16 164.92 14.98Q165.41 15.79 166.78 15.79L166.78 15.79ZM177.36 0Q178.49 0 178.82 0.35Q179.16 0.70 179.16 1.81Q179.16 2.93 178.81 3.28Q178.46 3.62 177.35 3.62Q176.23 3.62 175.88 3.26Q175.54 2.90 175.54 1.80Q175.54 0.70 175.88 0.35Q176.23 0 177.36 0ZM178.90 5.74L178.90 18.94L175.78 18.94L175.78 5.74L178.90 5.74ZM189.79 12.74L189.79 12.74L189.79 11.50Q189.79 9.72 189.28 8.78Q188.76 7.85 187.13 7.85L187.13 7.85Q184.49 7.85 184.49 11.40L184.49 11.40L184.49 12.65Q184.49 16.46 187.13 16.46L187.13 16.46Q188.83 16.46 189.36 15.19L189.36 15.19Q189.79 14.18 189.79 12.74ZM192.91 12.02L192.91 12.02Q192.91 16.46 191.23 17.98L191.23 17.98Q189.82 19.27 187.13 19.27L187.13 19.27Q183.70 19.27 182.50 17.26L182.50 17.26Q181.37 15.41 181.37 12.02L181.37 12.02Q181.37 8.86 182.50 7.06L182.50 7.06Q183.74 5.04 187.04 5.04Q190.34 5.04 191.63 6.80Q192.91 8.57 192.91 12.02Z" transform="translate(52 16.364)"></path></svg>